<svg xmlns="http://www.w3.org/2000/svg" xmlns:xlink="http://www.w3.org/1999/xlink" width="100%" height="100%" viewBox="6 0 166 43" preserveAspectRatio="xMinYMid" fill="white">
<path d="M6,4 L24,14 42,4 V14 L24,24 6,14 V4 M6,20 L24,30 42,20 V30 L24,40 6,30 V20"></path>
<path d="M6,14 L15,9 24,14 33,9 42,14 24,24 6,14 M24,30 L15,25 6,30 24,40 V30 L33,35 42,30 33,25, 24,30"></path>
<path d="M15,9 V19 L24,14 V24 L42,14 L33,9 V19 L24,14 15,9 M24,30 L15,35 V25 L6,30 24,40 V30 L33,35 V25 L24,30"></path>
<path d="M67.6 9.3h4.1v21.1c0 3.4-2.2 5.6-6.4 5.6h-7.1c-4.2 0-6.4-2.2-6.4-5.6V9.3H56v21.1c0 1.5 1.1 2.6 2.6 2.6H65c1.5 0 2.6-1.1 2.6-2.6V9.3zM83.1 36c-3.6 0-5.8-2.3-5.8-4.9V9.3h3.9v21.8c0 1.3 0.9 2.3 2.3 2.3h1.1V36H83.1zM105.8 31.1c0 2.6-2.3 4.9-5.8 4.9h-5.8c-3.6 0-5.8-2.3-5.8-4.9V20.2c0-2.6 2.3-4.9 5.8-4.9h5.8c3.6 0 5.8 2.3 5.8 4.9V31.1zM92.3 31.1c0 1.3 0.9 2.3 2.3 2.3h5.1c1.3 0 2.3-0.9 2.3-2.3V20.2c0-1.3-0.9-2.3-2.3-2.3h-5.1c-1.3 0-2.3 0.9-2.3 2.3V31.1zM120.9 18.3h-10l-1.1-1.3v-1.3h16v2.4l-11.1 14.5V33h11.5v2.6h-16.4v-2.4l11.1-14.5V18.3zM124.6 7.4l-4.9 5.6h-3.4l-4.9-5.6h3.6l3 3.4 3-3.4H124.6zM134.5 35.6h-3.9v-4.5h3.9V35.6zM139.8 17.8h-3.4v-2.1h3.4l1.3-5.3h1.3v5.3h6v2.1h-6v13.2c0 1.7 1.3 3 3 3h5.8V36h-5.8c-3.6 0-5.6-2.1-5.6-5.1V17.8zM160.5 36c-3.6 0-5.6-2.1-5.6-5.1V20.4c0-3 2-5.1 5.6-5.1h5.6c3.6 0 5.6 2.1 5.6 5.1v10.5c0 3-2 5.1-5.6 5.1H160.5zM157.5 30.9c0 1.7 1.3 3 3 3h5.6c1.7 0 3-1.3 3-3V20.4c0-1.7-1.3-3-3-3h-5.6c-1.7 0-3 1.3-3 3V30.9z"></path>
</svg>