<?xml version="1.0" encoding="utf-8"?>
<svg xmlns="http://www.w3.org/2000/svg" xmlns:xlink="http://www.w3.org/1999/xlink" viewBox="275 187 115 65">
<style type="text/css">
	.st0{fill:#C8CDCE;}
	.st1{fill:#B5B5B5;}
	.st2{fill:#EFF4F4;}
	.st3{fill:#FFFFFF;}
	.st4{fill:#ED9558;}
	.st5{fill:#6F7475;}
	.st6{fill:#E2E2E2;}
	.st7{fill:#D6DDEA;}
	.st8{fill:#ED8C62;}
	.st9{fill:#FFAF84;}
	.st10{fill:#E8E8E8;}
	.st11{fill:#951B81;}
	.st12{fill:#66145C;}
	.st13{fill:#ED7ED6;}
	.st14{fill:#C8D6DB;}
	.st15{fill:#82AACE;}
	.st16{fill:#4E7CAF;}
	.st17{fill:#424344;}
</style>
<g>
	<g>
		<path class="st0" d="M247.7,286.5c-0.3,0-0.5-0.2-0.5-0.5c0-5.1,0.6-10.2,1.7-15.2c1.5-6.7,4-13.1,7.3-19.1
			c0.1-0.2,0.4-0.3,0.7-0.2c0.2,0.1,0.3,0.4,0.2,0.7c-3.3,5.9-5.8,12.2-7.2,18.9c-1.1,4.9-1.6,9.9-1.6,15
			C248.2,286.3,248,286.5,247.7,286.5z"/>
		<path class="st0" d="M250,304.2c-0.2,0-0.4-0.1-0.5-0.4c-0.5-2-1-4-1.3-6.1c0-0.3,0.1-0.5,0.4-0.6c0.3,0,0.5,0.1,0.6,0.4
			c0.3,2,0.8,4,1.3,6c0.1,0.3-0.1,0.5-0.4,0.6C250.1,304.2,250.1,304.2,250,304.2z"/>
		<g>
			<path class="st0" d="M381.8,286c0,35.8-29,64.7-64.7,64.7c-35.8,0-64.7-29-64.7-64.7c0-35.8,29-64.7,64.7-64.7
				C352.8,221.3,381.8,250.2,381.8,286z"/>
			<path class="st1" d="M375.5,286c0,19.3-9.4,36.5-23.8,47.1c-4.3,3.2-9.1,5.8-14.1,7.7c-2.3,0.9-4.6,1.6-7,2.1
				c-4.3,1-8.8,1.6-13.5,1.6c-6,0-11.9-0.9-17.4-2.6c-23.8-7.4-41.1-29.6-41.1-55.8c0-9.1,2.1-17.8,5.8-25.4
				c4.6-9.4,11.6-17.5,20.3-23.2c2-1.4,4.1-2.6,6.4-3.7c4.7-2.4,9.9-4.1,15.2-5.1c3.5-0.6,7.1-1,10.8-1
				C349.3,227.5,375.5,253.7,375.5,286z"/>
			<path class="st2" d="M374,286c0,18.8-9.1,35.5-23.2,45.9c-4.2,3.1-8.8,5.6-13.8,7.5c-2.2,0.8-4.5,1.5-6.8,2.1
				c-4.2,1-8.6,1.5-13.1,1.5c-5.9,0-11.6-0.9-16.9-2.6c-23.2-7.2-40-28.8-40-54.4c0-8.9,2-17.3,5.7-24.8c4.4-9.2,11.3-17,19.7-22.6
				c2-1.3,4-2.5,6.2-3.6c4.6-2.3,9.6-4,14.8-5c3.4-0.6,6.9-1,10.5-1C348.5,229.1,374,254.5,374,286z"/>
			<path class="st3" d="M330.2,341.4c-4.2,1-8.6,1.5-13.1,1.5c-5.9,0-11.6-0.9-16.9-2.6l-34.3-79.1c4.4-9.2,11.3-17,19.7-22.6
				L330.2,341.4z"/>
			<path class="st3" d="M350.8,331.8c-4.2,3.1-8.8,5.6-13.8,7.5L291.8,235c4.6-2.3,9.6-4,14.8-5L350.8,331.8z"/>
			<path class="st4" d="M317.1,289c-1.1,0-2.1-0.6-2.7-1.6c-0.8-1.5-0.2-3.3,1.3-4l30.6-16c1.5-0.8,3.3-0.2,4,1.3
				c0.8,1.5,0.2,3.3-1.3,4l-30.6,16C318,288.9,317.5,289,317.1,289z"/>
			<path class="st5" d="M328.8,286c0,6.5-5.2,11.7-11.7,11.7c-6.5,0-11.7-5.2-11.7-11.7c0-6.5,5.2-11.7,11.7-11.7
				C323.5,274.3,328.8,279.5,328.8,286z"/>
			<path class="st5" d="M317.1,289c-1,0-2-0.5-2.6-1.4l-24.1-39c-0.9-1.4-0.4-3.3,1-4.1c1.4-0.9,3.3-0.4,4.1,1l24.1,39
				c0.9,1.4,0.4,3.3-1,4.1C318.2,288.8,317.6,289,317.1,289z"/>
		</g>
		<path class="st0" d="M381.8,286c0,21.4-10.3,40.3-26.3,52.1l-28.8-113.4c-0.2-0.9-0.3-1.9-0.3-2.8l0,0
			C357.7,226.4,381.8,253.4,381.8,286z"/>
		<path class="st6" d="M290.1,353.9h54c0.9,0,1.6-0.7,1.6-1.6l0,0c0-0.9-0.7-1.6-1.6-1.6h-54c-0.9,0-1.6,0.7-1.6,1.6l0,0
			C288.5,353.1,289.2,353.9,290.1,353.9z"/>
	</g>
	<g>
		<path class="st6" d="M366,356.2h28.6c0.9,0,1.6-0.7,1.6-1.6l0,0c0-0.9-0.7-1.6-1.6-1.6H366c-0.9,0-1.6,0.7-1.6,1.6l0,0
			C364.4,355.5,365.1,356.2,366,356.2z"/>
		<g>
			<g>
				<polygon class="st7" points="375.4,349.5 374.1,341.2 377.8,340.1 378.4,348.9 				"/>
				<path class="st4" d="M378.6,348c0.2,0,0.5,0.1,0.7,0.3c1.3,1.1,5.3,3.1,7.4,3.4c2.2,0.3,2.3,1.4-0.8,1.4c-3.1,0-5.4-0.3-6.8-0.2
					c-1.4,0-1,0.2-4.4,0.2c-2.6,0-1.8-3.3-0.9-4.9c0.3-0.5,0.7-0.7,1.2-0.7L378.6,348z"/>
			</g>
			<g>
				<polygon class="st7" points="363.4,341.8 368.6,335.2 372,337.2 365.9,343.6 				"/>
				<path class="st4" d="M366.7,343.1c0.1,0.2,0.2,0.4,0.2,0.7c0.1,1.7,1.4,6.1,2.9,7.5c1.6,1.4,0.6,1.8-2,0.6
					c-2.8-1.3-3.4-4.2-4.4-5.1c-1-1-0.9-0.6-3.2-3.1c-1.8-1.9,1.2-3.6,3-3.9c0.5-0.1,1,0,1.3,0.5L366.7,343.1z"/>
			</g>
			<g>
				<g>
					<path class="st8" d="M361.1,201.9c0,0-1,6.8,1,9.9c2,3.1,2.3,3.6,2.3,3.6"/>
					<path class="st9" d="M366.1,218.5c-0.6,0.3-1.2,0.5-1.8,0.5c-1.2,0-2.4-0.6-3-1.7c0,0-0.4-0.6-2.2-3.5c-1.3-2-1.7-4.8-1.8-7.2
						c-0.1-2.4,0.2-4.4,0.3-5.1c0.3-1.9,2.1-3.3,4-3c1.9,0.3,3.3,2.1,3,4c-0.2,1-0.2,2.2-0.2,3.3c0,1.1,0.1,2.2,0.3,3.1
						c0.1,0.5,0.2,0.9,0.4,1.1c2,3.2,2.3,3.7,2.3,3.7C368.4,215.3,367.8,217.5,366.1,218.5z"/>
				</g>
				<path class="st10" d="M353.1,257.4c0.7-10.1-2.7-35.3-4.4-45.3c-0.3-1.5,0.9-2.9,2.5-2.9h20.8c1.1,0,2.1,0.8,2.4,1.8
					c2.4,9.1,3.9,46.4,3.9,46.4H353.1z"/>
				<path class="st9" d="M387.5,236.3c-0.4-1.9-2.7-6.8-5.3-11.9c-2.8-5.4-5.9-11.1-7.3-13.6c-0.8-1.4-2.6-2-4.1-1.2
					c-1.4,0.8-2,2.6-1.2,4.1c2.2,4,4.5,8.2,6.4,12c2.2,4.3,4.4,7,5.3,9.1c-1.6,1.4-5.6,1.5-8.8,1.3c-0.9-0.1-4.3-0.3-6.5,1.7
					c-0.9,0.8-1.9,2.3-1.8,4.6c0.1,1.6,0.3,2.3,1.7,3c0.6,0.3,1.4,0.4,2,0.3c1.6-0.2,1.8-1.1,1.8-3c0-1.3,0.7-2.7,0.7-2.7
					c0,0,4.8,1.2,8.9,1.7c4,0.5,5.7-0.3,7.2-2C387.4,238.7,387.7,237.5,387.5,236.3z"/>
				<path class="st11" d="M354.2,273.7c0,0-3.1-5.6-1.1-16.4h25.1c0,0,0.4,8.2-0.2,16.4H354.2z"/>
				<path class="st8" d="M382.2,224.4l-2.9,0.6l-3.2,0.6c-2-3.8-4.2-8-6.4-12c-0.8-1.4-0.3-3.3,1.2-4.1c1.4-0.8,3.3-0.3,4.1,1.2
					C376.3,213.3,379.4,219,382.2,224.4z"/>
				<path class="st9" d="M353.9,211.5c-0.4-1.6-2-2.6-3.6-2.2c-7.2,1.8-12.2,3.4-15.7,4.9c-8,3.4-7.9,5.9-7.9,7.2
					c0,1.5,0.3,4.3,17.6,10.6c0,0.5-0.5,2.5-0.9,3.1c-0.8,1.5,0,2.8,0.9,4.2c0.3,0.5,1,1.1,1.8,1.1c1.1,0,2.4-1.3,2.6-2.5
					c0.7-4,0.5-6.4,0.3-6.9c0,0,0,0,0,0c0,0,0,0,0,0c0,0,0-0.1-0.1-0.1c-0.1-0.1-0.1-0.3-0.2-0.4c-0.1-0.1-0.1-0.1-0.2-0.2
					c-0.1-0.1-0.1-0.2-0.2-0.2c-0.1-0.1-0.2-0.2-0.4-0.3c0,0,0,0-0.1-0.1c-0.2-0.1-0.4-0.2-0.7-0.3c-5.9-2.4-11.3-6.3-13.7-8
					c0.8-0.5,2-1,3.5-1.6c3.7-1.5,9.1-3.2,14.7-4.6C353.3,214.7,354.3,213.1,353.9,211.5z"/>
				<path class="st10" d="M382.7,223.1l-4,0.8l-3.1,0.6h0l-2.7,0.5c-3.4-6.7-4.3-8.3-4.4-10.6c-0.1-2.6,0.6-3.9,2.3-4.8
					c1.7-0.9,3.8-0.3,4.8,1.4C375.5,211,379.2,216.2,382.7,223.1z"/>
				<path class="st11" d="M393.6,307c-0.4,2.5-1.7,5.1-3.6,8.4c-3.1,5.5-7.9,11.5-12.3,16.6c-3,3.5-5.8,6.6-7.5,8.7
					c-0.8,0.9-1.4,1.6-1.7,2.1l-3.5-4.6c1.3-1.9,2.5-4.4,4.1-6.7c0-0.1,0.1-0.1,0.1-0.2c2.9-4.4,6-9.3,8.5-13.8
					c0.1-0.1,0.2-0.3,0.3-0.4c2.6-4.7,4.6-8.9,5-11.4c0.7-4.4-5.9-18-12.4-30.1c-0.7-1.4-1.5-2.7-2.2-4.1c-0.3-0.5-0.4-1-0.4-1.5
					c-0.2-2.2,1.4-4.8,3.4-5.9c2.4-1.3,5.6-2,6.9,0.4C381,269.5,395.2,296.3,393.6,307z"/>
				<path class="st12" d="M377.8,331.9c-3,3.5-7.5,8.7-7.5,8.7l-0.9-7.8l-0.2-1.6c0,0,6-9.3,8.5-13.8
					C377.8,321.9,377.8,327,377.8,331.9z"/>
				<path class="st11" d="M377.1,308.3c-1.2-10.1-9.7-37.1-11-40.1c-1.1-2.5-7.2-3.1-9.8-2c-2.5,1.1-3.7,4.1-2.6,6.6
					c3.4,7.7,13,28.4,14,35.7c0.6,4.4,1.3,13.2,2.7,20.6c1,5.2,1.9,10.3,2.7,14c0.6,3.2,0.6,2.6,0.7,2.9l6-0.9
					C379.9,345.3,378.6,320.2,377.1,308.3z"/>
				<path class="st8" d="M351.7,215.1c-5.6,1.4-11,3.1-14.7,4.6l-2.4-5.5c3.5-1.5,8.5-3.1,15.7-4.9c1.6-0.4,3.2,0.6,3.6,2.2
					C354.3,213.1,353.3,214.7,351.7,215.1z"/>
				<path class="st10" d="M350.3,209.2c1.9-0.3,3.3,0.6,3.8,2.5c0.5,1.9-0.8,3.3-2.4,4.3c-2.1,1.2-2.7,1.4-11.4,4.4l-4.8-6.7
					C346.5,209.5,347.1,209.7,350.3,209.2z"/>
				<path class="st8" d="M364.7,208.8c-0.2,0-0.3,0-0.5,0c-2.6,0-5-0.9-6.8-2.3c-0.1-2.4,0.2-4.4,0.3-5.1c0.3-1.9,2.1-3.3,4-3
					c1.9,0.3,3.3,2.1,3,4c-0.2,1-0.2,2.2-0.2,3.3C364.4,206.9,364.5,208,364.7,208.8z"/>
				<path class="st9" d="M374.7,196.3c-1.4,6.5-5,11.2-11.2,11.2c-6.2,0-10.1-4.7-11.2-11.2c-1-6.1,5.1-12.1,11.3-12.1
					C369.7,184.2,376,190.2,374.7,196.3z"/>
				<path class="st13" d="M375.5,346.3l0-0.2c-1.7-10.5-4.3-26.4-5.6-36.4c-0.9-7.3-10-28.9-13.3-36.6c0-0.1,0-0.1-0.1-0.2
					c0,0,0-0.1,0-0.1c-0.5-1.5-2.2-7-0.6-15.7l0.5,0.1c-1.6,8.6,0.1,14,0.6,15.4c0,0,0,0.1,0,0.1c0,0,0,0.1,0,0.1
					c3.4,7.7,12.4,29.4,13.4,36.8c1.3,10,3.9,25.9,5.6,36.4l0,0.2L375.5,346.3z"/>
			</g>
			<path class="st14" d="M367.4,209.1c0,1.5-0.6,4.1-4.6,4.1c-2.9,0-6.5-1.2-7.9-3.6l-0.3-0.5H367.4z"/>
			<path class="st9" d="M355.8,209.1c1.1,1.9,4.3,3.1,7,3.1c2.8,0,3.6-1.4,3.6-3.1H355.8z"/>
			<g>
				<path class="st15" d="M371,240.5c0,0,0.2-1.7-1.6-4.2l1.6-1c2.1,3.1,1.9,5.3,1.9,5.5L371,240.5z"/>
				<path class="st16" d="M369.7,235.3c0.9-0.4,2.2-0.2,2.8,0.5c0.6,0.7,0.3,1.6-0.6,2c-0.9,0.4-2.2,0.2-2.8-0.5
					C368.4,236.7,368.7,235.8,369.7,235.3z"/>
			</g>
			<path class="st17" d="M374.4,188c-3.4-5.5-11.7-5.9-13.4-5.8c-0.9,0-2.7,0.5-3.5,1.8c-0.1-0.9,0-1.7,0-1.7
				c-0.7,0.9-0.9,1.7-0.7,2.2c-0.5-0.7-0.9-1.4-0.9-1.4c-0.1,1,0.1,1.5,0.5,1.8c-2.3,0.5-5.2,3.8-4.2,10.4c0.4,2.9,6.9,0.7,8.8-2.2
				c1.2,2,3.7,2.4,3.7,2.4c-0.9-0.9-1.6-2.1-2.2-3.4c3.5,2.1,8.1,4.4,8.6,5.8c0,0,1-2.3,0.3-3.7c0,0,2.8,0.7,3.1,3.4
				C374.5,197.6,378,193.8,374.4,188z"/>
			
				<rect x="367.1" y="257" transform="matrix(0.9872 -0.1595 0.1595 0.9872 -37.6652 62.0005)" class="st13" width="0.5" height="17.2"/>
			<path class="st13" d="M368.2,270.9l-0.1-0.5c0,0,1.1-0.2,1.6-1c0.3-0.5,0.4-1,0.3-1.7l-1.7-10.8l0.5-0.1l1.7,10.8
				c0.1,0.8,0,1.6-0.4,2.1C369.5,270.7,368.3,270.9,368.2,270.9z"/>
			<path class="st9" d="M351.8,195.6c-0.5,1.1-0.4,2.3,0,3.3c0.6,1.2,2.3,1.1,2.8-0.1l1.5-3.2c0.5-1.2-0.6-2.5-1.8-2.2
				C353.2,193.8,352.3,194.5,351.8,195.6z"/>
		</g>
	</g>
</g>
</svg>
